<svg width="150" height="200" viewBox="0 0 1501 1554" fill="none" xmlns="http://www.w3.org/2000/svg">
<path d="M607.623 346.057C677.757 482.209 817.234 775.306 825.48 1024.89L730.948 1043.24C738.08 970.478 722.107 832.654 692.257 698.13C676.913 628.983 657.863 560.514 636.293 501.956C615.672 445.974 592.617 398.682 568.072 368.574L607.623 346.057Z" fill="url(#paint0_linear_408_197)" stroke="black" stroke-width="8.34783"/>
<path d="M566.687 37.3247C608.959 1.11224 670.07 -9.75744 726.606 27.6382C723.394 28.5377 719.446 29.7443 714.941 31.3247C702.482 35.6962 685.707 42.9366 668.443 54.4253C633.844 77.4508 597.29 117.567 589.706 185.497L588.03 200.502L597.176 188.488C642.86 128.466 735.462 102.325 817.003 110.434C857.665 114.478 895.062 127.007 922.078 147.635C947.459 167.015 963.708 193.533 965.117 227.266C964.494 227.029 963.824 226.776 963.108 226.508C958.042 224.616 950.688 222.002 941.504 219.095C923.142 213.284 897.422 206.294 867.986 201.583C809.276 192.185 735.002 191.725 675.021 228.708L664.932 234.928L676.693 236.402H676.694L676.735 236.408C676.767 236.412 676.817 236.418 676.883 236.426C677.016 236.444 677.218 236.471 677.486 236.507C678.023 236.581 678.826 236.693 679.876 236.849C681.976 237.161 685.066 237.646 688.991 238.333C696.843 239.709 708.035 241.897 721.354 245.137C748.016 251.624 783.091 262.304 816.935 279.078C850.81 295.867 883.173 318.625 904.738 349.127C924.059 376.455 934.846 410.177 930.082 451.903C928.939 449.845 927.594 447.608 926.012 445.225C918.009 433.176 904.027 417.456 880.009 402.157C831.997 371.575 744.134 342.822 584.142 347.968L582.187 348.032L580.984 349.574L584.275 352.14C581.016 349.599 580.983 349.575 580.98 349.578C580.979 349.579 580.976 349.583 580.974 349.586C580.968 349.594 580.96 349.604 580.95 349.617C580.93 349.643 580.901 349.681 580.863 349.73C580.787 349.829 580.676 349.974 580.53 350.165C580.24 350.545 579.813 351.106 579.264 351.841C578.164 353.311 576.57 355.476 574.576 358.273C570.588 363.867 564.997 371.997 558.557 382.17C545.684 402.506 529.388 431.062 515.739 463.902C490.525 524.57 473.915 600.945 506.183 666.98C502.096 663.958 497.331 660.22 492.169 655.768C476.077 641.892 456.215 621.166 440.977 593.715C425.757 566.3 415.141 532.17 417.484 491.348C419.828 450.514 435.156 402.69 472.292 347.928L476.348 341.948L469.141 341.422C411.678 337.236 363.735 367.315 326.081 411.457C290.336 453.36 263.466 508.351 245.958 560.326C215.088 509.681 221.44 443.367 254.152 386.223C288.384 326.426 351.064 277.541 428.12 268.486L440.294 267.055L429.776 260.759C389.696 236.766 341.173 237.324 295.896 250.43C255.923 262 218.01 283.471 189.768 307.256C212.147 236.52 265.85 194.494 326.911 178.473C391.957 161.407 465.105 173.936 517.126 212.691L528.344 221.048L523.54 207.911C498.991 140.776 522.455 75.2152 566.687 37.3247Z" fill="url(#paint1_linear_408_197)" stroke="black" stroke-width="8.34783"/>
<path d="M1210.94 640.879C1158.11 742.047 1084.35 913.951 934.953 1026.65L875.831 1025.34C925.423 989.158 992.507 918.788 1051.42 843.668C1082.47 804.088 1111.31 763.107 1134.19 724.989C1156.1 688.505 1172.65 654.474 1180.38 626.728L1210.94 640.879Z" fill="url(#paint2_linear_408_197)" stroke="black" stroke-width="6.18358"/>
<path d="M1099.35 397.303C1141.53 371.597 1185.98 380.815 1216.37 408.114C1248.55 437.011 1264.83 486.089 1245.42 535.52L1240.31 548.542L1251.72 540.45C1291.1 512.526 1345.8 504.46 1393.95 518.311C1438.12 531.018 1476.58 562.092 1492.66 613.051C1472.12 595.577 1445.11 579.782 1416.51 570.77C1382.66 560.102 1345.98 558.771 1315.19 576.238L1304.54 582.284L1316.67 584.001C1373.87 592.092 1419.71 629.586 1444.17 674.74C1467.15 717.168 1470.91 765.581 1448.48 802.346C1436.22 763.65 1417.23 722.784 1391.56 691.216C1364 657.338 1328.32 633.697 1284.74 635.847L1277.52 636.202L1281.44 642.277C1308.22 683.833 1318.78 719.754 1319.81 750.167C1320.84 780.569 1312.35 805.761 1300.55 825.89C1288.73 846.053 1273.58 861.143 1261.34 871.204C1258.79 873.304 1256.36 875.181 1254.13 876.837C1277.2 828.367 1266.09 772.258 1248.69 727.465C1239.02 702.55 1227.28 680.814 1217.98 665.318C1213.32 657.564 1209.26 651.358 1206.36 647.083C1204.91 644.945 1203.75 643.289 1202.95 642.162C1202.55 641.599 1202.24 641.168 1202.02 640.875C1201.92 640.729 1201.84 640.617 1201.78 640.54C1201.75 640.502 1201.73 640.472 1201.71 640.451C1201.71 640.441 1201.7 640.433 1201.7 640.427C1201.69 640.424 1201.69 640.422 1201.69 640.42C1201.69 640.418 1201.69 640.417 1198.34 642.906L1201.69 640.416L1200.52 638.847L1198.57 638.738C1078.67 632.061 1012.1 652.066 975.349 674.28C956.962 685.394 946.102 697.026 939.811 706.032C939.272 706.804 938.768 707.557 938.294 708.287C936.33 678.683 944.842 654.876 959.138 635.629C975.69 613.346 1000.17 596.955 1025.76 585.011C1051.31 573.081 1077.7 565.716 1097.74 561.334C1107.76 559.146 1116.16 557.708 1122.04 556.818C1124.99 556.373 1127.3 556.065 1128.87 555.869C1129.66 555.772 1130.26 555.702 1130.66 555.656C1130.86 555.634 1131.01 555.617 1131.1 555.607C1131.15 555.601 1131.19 555.598 1131.21 555.596C1131.22 555.595 1131.23 555.594 1131.24 555.593C1131.24 555.593 1131.24 555.592 1131.24 555.592L1131.24 555.591L1143.03 554.395L1133.09 547.94C1088.49 518.968 1032.52 518.04 988.283 524.062C966.082 527.084 946.636 531.882 932.741 535.924C925.789 537.946 920.217 539.782 916.373 541.115C916.369 541.117 916.366 541.117 916.363 541.118C918.456 516.883 931.145 497.356 950.394 482.84C971.326 467.056 999.971 457.268 1030.73 454.227C1092.5 448.12 1160.7 469.303 1190.48 520.326L1196.15 530.047L1198.19 518.978C1206.36 474.546 1178.61 443.204 1150.19 423.447C1135.9 413.514 1121.16 406.288 1110.03 401.551C1105.92 399.805 1102.29 398.393 1099.35 397.303Z" fill="url(#paint3_linear_408_197)" stroke="black" stroke-width="8.34783"/>
<path d="M620.082 1095.53C679.146 1056.47 774.167 1018.84 917.632 1025.59C1052.06 1031.91 1152.4 1116.13 1218.11 1189.35C1119.34 1335.11 918.944 1444.36 714.979 1444.36C527.936 1444.36 355.39 1352.12 253.83 1224.77C326.475 1148.57 434.79 1140.25 532.599 1176.83L536.037 1178.11L537.865 1174.93H537.866C537.867 1174.93 537.869 1174.93 537.873 1174.92C537.881 1174.91 537.895 1174.88 537.914 1174.85C537.953 1174.78 538.016 1174.68 538.102 1174.54C538.274 1174.25 538.541 1173.82 538.906 1173.24C539.637 1172.09 540.76 1170.38 542.299 1168.2C545.377 1163.82 550.12 1157.55 556.718 1150.04C569.913 1135.03 590.523 1115.08 620.082 1095.53Z" fill="url(#paint4_linear_408_197)" stroke="black" stroke-width="8.65701"/>
<path d="M138.064 477.61C136.857 515.813 144.208 552.941 159.956 586.195C127.274 661.16 109.087 743.93 109.087 830.941C109.087 989.083 169.118 1139.3 278.135 1253.83V1253.83C394.956 1376.71 552.985 1444.55 722.564 1444.55C906.015 1444.55 1078.43 1363.25 1195.66 1221.67L1195.66 1221.67C1265.1 1137.61 1310.64 1036.6 1328.16 929.807C1344.68 914.788 1367.1 891.468 1378.67 867.724C1394.12 886.348 1406.17 910.397 1414.54 930.528C1419.04 941.356 1422.45 950.973 1424.73 957.88C1425.87 961.331 1426.73 964.103 1427.3 966.006C1427.57 966.899 1427.78 967.601 1427.92 968.092C1405.07 1085.3 1353.36 1195.85 1276.63 1288.64C1139.41 1454.48 937.51 1549.64 722.564 1549.64C525.401 1549.64 341.887 1471.56 205.126 1329.8L201.904 1326.44C74.266 1192.01 3.99811 1016.21 3.99805 830.941C3.99805 731.653 24.2526 637.007 60.9277 550.957L138.064 477.61Z" fill="url(#paint5_linear_408_197)" stroke="black" stroke-width="7.4203"/>
<defs>
<linearGradient id="paint0_linear_408_197" x1="695.713" y1="86.5269" x2="695.713" y2="1358.66" gradientUnits="userSpaceOnUse">
<stop stop-color="#4BDFF0"/>
<stop offset="0.5366" stop-color="#CF2699"/>
<stop offset="1" stop-color="#F0C44B"/>
</linearGradient>
<linearGradient id="paint1_linear_408_197" x1="575.637" y1="0.171387" x2="575.637" y2="680.115" gradientUnits="userSpaceOnUse">
<stop stop-color="#00FF7B"/>
<stop offset="1" stop-color="#59AA80"/>
</linearGradient>
<linearGradient id="paint2_linear_408_197" x1="1040.79" y1="476.398" x2="1040.79" y2="1208.25" gradientUnits="userSpaceOnUse">
<stop stop-color="#4BDFF0"/>
<stop offset="0.5366" stop-color="#CF2699"/>
<stop offset="1" stop-color="#F0C44B"/>
</linearGradient>
<linearGradient id="paint3_linear_408_197" x1="1206.14" y1="377.959" x2="1155.26" y2="855.836" gradientUnits="userSpaceOnUse">
<stop stop-color="#00FF7B"/>
<stop offset="1" stop-color="#244433"/>
</linearGradient>
<linearGradient id="paint4_linear_408_197" x1="735.501" y1="-51.2294" x2="735.501" y2="1332.6" gradientUnits="userSpaceOnUse">
<stop stop-color="#4BDFF0"/>
<stop offset="0.735" stop-color="#E32988"/>
<stop offset="1" stop-color="#F0C44B"/>
</linearGradient>
<linearGradient id="paint5_linear_408_197" x1="716.009" y1="52.0239" x2="716.009" y2="1496.99" gradientUnits="userSpaceOnUse">
<stop stop-color="#F0C44B"/>
<stop offset="0.495" stop-color="#CF2699"/>
<stop offset="1" stop-color="#00FFFF"/>
</linearGradient>
</defs>
</svg>
